# xmcd
# 
# Track frame offsets:
#     182
#     15735
#     34637
#     51717
#     70970
#     88005
#     102457
#     123000
#     145822
#     161810
#     182335
#     202035
#     221417
# 
# Disc length: 3242
# 
# Revision: 2
# Processed by: cddbd v1.5.2PL0 Copyright (c) Steve Scherf et al.
# Submitted via: fre:ac v1.1beta1pre5
# 
DISCID=ba0ca80d
DTITLE=Paul Ubana Jones - Paul Ubana Jones
DYEAR=1995
DGENRE=Blues Rock
TTITLE0=So Bad
TTITLE1=Crack Up
TTITLE2=Hoochie Coochie Man
TTITLE3=Ballad Of A Thin Man
TTITLE4=You Better Get It Right
TTITLE5=Home Is Where The Hatred Is
TTITLE6=Special Request
TTITLE7=Louise
TTITLE8=Call Him Hero
TTITLE9=Daddy Don't Live Here Anymore
TTITLE10=Oh Lucky Brother
TTITLE11=The Music Is Why I'm Here
TTITLE12=Africa - The Sunburnt Stone
EXTD=
EXTT0=
EXTT1=
EXTT2=
EXTT3=
EXTT4=
EXTT5=
EXTT6=
EXTT7=
EXTT8=
EXTT9=
EXTT10=
EXTT11=
EXTT12=
PLAYORDER=
